ply
format ascii 1.0
comment VTK generated PLY File
obj_info vtkPolyData points and polygons: vtk4.0
element vertex 223
property float x
property float y
property float z
element face 404
property list uchar int vertex_indices
end_header
-0.00618383614346385 0.0052544116042554379 0.034111645072698593 
-0.0073968907818198204 0.0064117508009076118 0.034478180110454559 
-0.0065770312212407589 0.0066815572790801525 0.033603779971599579 
-0.0040730684995651245 0.0036429176107048988 0.034565061330795288 
-0.0057249902747571468 0.0034229448065161705 0.035676766186952591 
-0.0038587106391787529 0.004687940701842308 0.033499307930469513 
-0.0071625541895627975 0.0042479927651584148 0.035722717642784119 
-0.0051993904635310173 0.0066770450212061405 0.033082615584135056 
-0.0069702267646789551 0.0081087006255984306 0.033095914870500565 
-0.0080642858520150185 0.0079102367162704468 0.034094251692295074 
-0.0053329444490373135 0.0082441000267863274 0.032407153397798538 
-0.0054334942251443863 0.010289299301803112 0.031932935118675232 
-0.0084426533430814743 0.010054136626422405 0.033695530146360397 
-0.0072212168015539646 0.010199534706771374 0.032618638128042221 
-0.0036956616677343845 0.0083794966340065002 0.031718391925096512 
-0.0037771861534565687 0.0065337195992469788 0.032608851790428162 
-0.0017746926750987768 0.0066122347488999367 0.032332245260477066 
-0.0015723251271992922 0.0084808012470602989 0.031478941440582275 
-0.0036191523540765047 0.010329700075089931 0.03124970942735672 
-0.0019866118673235178 0.0047090067528188229 0.033202078193426132 
-0.0022069795522838831 0.0035147094167768955 0.034323755651712418 
-0.0024789560120552778 0.0023253001272678375 0.035450894385576248 
-0.0042874268256127834 0.0025978949852287769 0.035630814731121063 
-0.006506835576146841 0.0025779241696000099 0.037939969450235367 
-0.0027088497299700975 0.0017328058602288365 0.0366952084004879 
-0.0048589394427835941 0.0015099734300747514 0.038048207759857178 
-0.0081547312438488007 0.0036458747927099466 0.037831731140613556 
-0.0081604495644569397 0.0059798820875585079 0.035407654941082001 
-0.0092601915821433067 0.0055308537557721138 0.037674158811569214 
0.00055101158795878291 0.0085821067914366722 0.031239490956068039 
0.0022374957334250212 0.0067637935280799866 0.03234722837805748 
0.00021824931900482625 0.0066560888662934303 0.032072167843580246 
-0.0014208354987204075 0.010404603555798531 0.031056800857186317 
0.0027148125227540731 0.0086173610761761665 0.031630277633666992 
0.00079391105100512505 0.010457057505846024 0.030867356806993484 
0.0017759965267032385 0.0048639210872352123 0.033086515963077545 
-0.00011451294994913042 0.0047300728037953377 0.032904848456382751 
0.0014341754140332341 0.0035821110941469669 0.034142144024372101 
-0.0003924989141523838 0.0033913871739059687 0.034087911248207092 
-0.0074722068384289742 0.012290366925299168 0.032141365110874176 
-0.0055074244737625122 0.012285135686397552 0.031461194157600403 
-0.0088035454973578453 0.012143200263381004 0.033300440758466721 
-0.0035426428075879812 0.012279904447495937 0.030781025066971779 
-0.0012529159430414438 0.012305956333875656 0.030638124793767929 
-0.010365651920437813 0.0074158301576972008 0.037516582757234573 
-0.0091583468019962311 0.007711771409958601 0.035092588514089584 
-0.01029984001070261 0.0097276903688907623 0.036054648458957672 
-0.0096466150134801865 0.0098539022728800774 0.034776054322719574 
-0.0029709169175475836 0.0011039633536711335 0.038023289293050766 
-0.0032761706970632076 0.0011835393961519003 0.040704566985368729 
-0.0052159340120851994 0.0015051199588924646 0.0407073013484478 
-0.0069540091790258884 0.0025097602047026157 0.040538717061281204 
-0.0086920838803052902 0.0035144004505127668 0.04037012904882431 
-0.00067048484925180674 0.0020527034066617489 0.035270977765321732 
0.0011298969620838761 0.0022873829584568739 0.035213299095630646 
0.00097386154811829329 0.0015735459746792912 0.036573309451341629 
-0.00087668944615870714 0.0013753284001722932 0.036634672433137894 
0.0010368105722591281 0.0123320072889328 0.030495224520564079 
0.0030783859547227621 0.010541862808167934 0.03128332644701004 
0.0034261287655681372 0.012438217177987099 0.030939450487494469 
0.0048786136321723461 0.0086526153609156609 0.032021064311265945 
0.0042725596576929092 0.0068251914344727993 0.032644622027873993 
0.007145437877625227 0.010510454885661602 0.032782223075628281 
0.0065649314783513546 0.0084774605929851532 0.033001352101564407 
0.0053470302373170853 0.010598520748317242 0.031702369451522827 
0.0058303540572524071 0.0067516458220779896 0.033464919775724411 
0.005090316291898489 0.0049630473367869854 0.033956076949834824 
0.003666505916044116 0.004997769370675087 0.033268183469772339 
0.0032983922865241766 0.0037599171046167612 0.0342119000852108 
-0.010134884156286716 0.011996033601462841 0.034459520131349564 
-0.010882674716413021 0.011868230067193508 0.03590119257569313 
-0.0097434995695948601 0.0053902985528111458 0.040230374783277512 
-0.01079491525888443 0.0072661940939724445 0.040090616792440414 
-0.011200675740838051 0.0095232389867305756 0.038883481174707413 
-0.010998059064149857 0.0095781274139881134 0.037429723888635635 
-0.0010828940430656075 0.00069795333547517657 0.037998367100954056 
0.0008157245465554297 0.0008651863900013268 0.03792230412364006 
0.00060389825375750661 0.00091641198378056288 0.040637284517288208 
-0.0013364071492105722 0.00086195889161899686 0.040701832622289658 
-0.0052378312684595585 0.0021139916498214006 0.042048316448926926 
-0.0069156065583229065 0.0030279566999524832 0.041896756738424301 
-0.0085213659331202507 0.004322682972997427 0.042963918298482895 
-0.0094777597114443779 0.0058334167115390301 0.042692117393016815 
0.0051808664575219154 0.0031869807280600071 0.035472564399242401 
0.0029302788898348808 0.0025220646057277918 0.03515562042593956 
0.0028223108965903521 0.0017772431019693613 0.036500930786132812 
0.0058154473081231117 0.012544427998363972 0.031383674591779709 
0.0076975435949862003 0.012508321553468704 0.032556094229221344 
0.0082512497901916504 0.0083023048937320709 0.033981643617153168 
0.0073826881125569344 0.006615316029638052 0.034312807023525238 
0.0089154448360204697 0.010387261398136616 0.033855076879262924 
0.0092136971652507782 0.0080696530640125275 0.035395339131355286 
0.0083135347813367844 0.0063590356148779392 0.035631138831377029 
0.0065141269005835056 0.0049283271655440331 0.03464396670460701 
0.0073918509297072887 0.0046187522821128368 0.035863913595676422 
-0.011630465276539326 0.011740423738956451 0.037342865020036697 
-0.011808914132416248 0.011722560971975327 0.038850560784339905 
-0.01043415255844593 0.0073441481217741966 0.042420316487550735 
-0.011391139589250088 0.0094854459166526794 0.040224436670541763 
-0.011127601377665997 0.0095132272690534592 0.041581630706787109 
-0.0014168435009196401 0.0015469860518351197 0.042024768888950348 
-0.0033257517497986555 0.0018284056568518281 0.042032685130834579 
0.0042632576078176498 0.0016220989637076855 0.037678234279155731 
0.0027143431361764669 0.001032421481795609 0.037846241146326065 
0.0025442037731409073 0.00097086303867399693 0.040572736412286758 
0.0043214173056185246 0.0013763568131253123 0.040423918515443802 
-0.0052597294561564922 0.0027228654362261295 0.043389331549406052 
-0.0033785044215619564 0.0024774384219199419 0.043368518352508545 
-0.0033544052857905626 0.0037181077059358358 0.044768501073122025 
-0.0051688910461962223 0.0039646262302994728 0.044772818684577942 
-0.0068905474618077278 0.0035227742046117783 0.043176624923944473 
-0.0067124371416866779 0.004618925042450428 0.044468548148870468 
-0.0082912351936101913 0.0053082569502294064 0.04417886957526207 
0.0070408736355602741 0.0032604758162051439 0.037297043949365616 
0.0058121718466281891 0.0022117763292044401 0.037510227411985397 
0.0095796408131718636 0.012472215108573437 0.033728510141372681 
0.010533531196415424 0.012298183515667915 0.035300027579069138 
0.0098790349438786507 0.010194703936576843 0.035350434482097626 
0.010176144540309906 0.0078370021656155586 0.036809030920267105 
0.0092228595167398453 0.0060730879195034504 0.03694644570350647 
0.010831782594323158 0.0099805761128664017 0.036840286105871201 
0.011126990430057049 0.0098637919872999191 0.038420479744672775 
0.010494344867765903 0.0076440894044935703 0.038277663290500641 
0.0095583740621805191 0.0058650090359151363 0.038374274969100952 
0.0082695754244923592 0.0043091755360364914 0.037083856761455536 
0.0086150523275136948 0.004073205403983593 0.038469482213258743 
0.007277823518961668 0.00304246018640697 0.038637023419141769 
-0.011649520136415958 0.011682686395943165 0.041812904179096222 
-0.011987363919615746 0.011704697273671627 0.040358252823352814 
-0.0096396366134285927 0.0079826852306723595 0.044445056468248367 
-0.010872915387153625 0.0095024127513170242 0.042843934148550034 
-0.0014972797362133861 0.0022320111747831106 0.043347705155611038 
0.00038890619180165231 0.0022191987372934818 0.043306145817041397 
-0.001544334227219224 0.0034862980246543884 0.044780071824789047 
0.00049532274715602398 0.0015661499928683043 0.041968390345573425 
0.0024096479173749685 0.001588624669238925 0.041918661445379257 
0.0060986308380961418 0.0017818486085161567 0.040275100618600845 
-0.0033347206190228462 0.0049734879285097122 0.046184372156858444 
-0.0050780531018972397 0.0052063888870179653 0.046156309545040131 
-0.0049811122007668018 0.0064606494270265102 0.047264263033866882 
-0.0065695787779986858 0.0057501089759171009 0.045775067061185837 
-0.006432380061596632 0.0069810552522540092 0.046816792339086533 
-0.0080611053854227066 0.0062938290648162365 0.045393824577331543 
-0.0078343022614717484 0.0081760045140981674 0.046889156103134155 
-0.0087761310860514641 0.0089589748531579971 0.046126257628202438 
0.011487421579658985 0.012124151922762394 0.036871545016765594 
0.011746271513402462 0.012045830488204956 0.038548141717910767 
0.0089605282992124557 0.0038372371345758438 0.039855107665061951 
0.0098865367472171783 0.0056442068889737129 0.039800699800252914 
0.0088164880871772766 0.0040690773166716099 0.041275598108768463 
0.0075295795686542988 0.0028095429297536612 0.040065102279186249 
0.011408832855522633 0.0097093433141708374 0.039985518902540207 
0.010812545195221901 0.0074511785060167313 0.039746295660734177 
0.011076531372964382 0.0095986016094684601 0.041510112583637238 
0.010324436239898205 0.0072130602784454823 0.042447187006473541 
0.0094984425231814384 0.005756990984082222 0.042571641504764557 
-0.010303611867129803 0.0096488576382398605 0.04410061240196228 
-0.011311677284538746 0.011660677380859852 0.04326755553483963 
-0.010546254925429821 0.011418173089623451 0.044685661792755127 
-0.0097102345898747444 0.0095791779458522797 0.045274410396814346 
0.0041826986707746983 0.001908077159896493 0.041798047721385956 
0.0022750922944396734 0.002206386299803853 0.043264582753181458 
0.0021273212041705847 0.0034570023417472839 0.044707205146551132 
0.00029212917434051633 0.0034664755221456289 0.044737696647644043 
0.0040483209304511547 0.0024445697199553251 0.043181657791137695 
-0.0015913887182250619 0.0047405869700014591 0.046212438493967056 
-0.0032862056978046894 0.0062143220566213131 0.04733411967754364 
0.00014716341684106737 0.0059617161750793457 0.047387585043907166 
-0.0015987821388989687 0.0059796301648020744 0.047413371503353119 
0.00019408068328630179 0.0047241034917533398 0.046181131154298782 
0.007383659016340971 0.0031445659697055817 0.041471771895885468 
0.0059600905515253544 0.0022323019802570343 0.04168691486120224 
-0.0048841717652976513 0.0077149076387286186 0.048372216522693634 
-0.0032427581027150154 0.0074614705517888069 0.048488885164260864 
-0.0047872322611510754 0.0089691681787371635 0.049480170011520386 
-0.006311898585408926 0.0082284519448876381 0.047862142324447632 
-0.0061973654665052891 0.0095136743038892746 0.048932328820228577 
-0.0032004006206989288 0.0087134446948766708 0.049647700041532516 
-0.0076074991375207901 0.010058178566396236 0.048384483903646469 
-0.0086941653862595558 0.010616924613714218 0.047244127839803696 
0.012005121447145939 0.011967506259679794 0.040224742144346237 
0.011608917266130447 0.011873095296323299 0.041811659932136536 
0.01076857466250658 0.0094958720728754997 0.042922884225845337 
0.010141277685761452 0.0095686335116624832 0.044225890189409256 
0.0094259995967149734 0.0076966281048953533 0.044535208493471146 
0.0083229970186948776 0.0051628523506224155 0.043962348252534866 
0.0086724478751420975 0.0043009193614125252 0.042696092277765274 
0.0072469990700483322 0.003491836367174983 0.042897410690784454 
-0.0097808316349983215 0.011175667867064476 0.046103768050670624 
0.0038406706880778074 0.0036668211687356234 0.044604804366827011 
0.0019795501139014959 0.0047076204791665077 0.046149823814630508 
0.0018902088049799204 0.0059525663964450359 0.047370355576276779 
0.0036365441046655178 0.0049028503708541393 0.046042829751968384 
0.0058215497992932796 0.0026827552355825901 0.043098732829093933 
0.0055575435981154442 0.0038904177490621805 0.044517282396554947 
0.0069228108040988445 0.0045066042803227901 0.04423026368021965 
9.8786142189055681e-05 0.0072036134079098701 0.04859822615981102 
-0.0016061757924035192 0.0072186756879091263 0.048614300787448883 
4.8978625272866338e-05 0.0084500871598720551 0.049813326448202133 
-0.0016135690966621041 0.0084577193483710289 0.049815230071544647 
0.011212713085114956 0.011778684332966805 0.043398581445217133 
0.010398609563708305 0.011493653059005737 0.04486478865146637 
0.0077987974509596825 0.0073647634126245975 0.046295110136270523 
0.0079735452309250832 0.0060247867368161678 0.045228604227304459 
0.0095052532851696014 0.0094526242464780807 0.045433100312948227 
0.008563249371945858 0.008759399875998497 0.04619680717587471 
0.0066335410811007023 0.005561433732509613 0.045582219958305359 
0.0035058690700680017 0.0061578932218253613 0.047235164791345596 
0.0018008676124736667 0.0071975118480622768 0.048590891063213348 
0.0033764936961233616 0.0074175884947180748 0.048431560397148132 
0.0017115264199674129 0.0084424577653408051 0.049811422824859619 
0.00324610760435462 0.0086812200024724007 0.049631811678409576 
0.0052935373969376087 0.0050980802625417709 0.045935835689306259 
0.0051225880160927773 0.0063720494508743286 0.047107957303524017 
0.0064603909850120544 0.0068712607026100159 0.04670393094420433 
0.0095845069736242294 0.011208619922399521 0.046330995857715607 
0.0085169039666652679 0.010626669973134995 0.04737955704331398 
0.0074493023566901684 0.010044718161225319 0.048428121954202652 
0.0076240496709942818 0.0087047414854168892 0.047361616045236588 
0.0061149955727159977 0.0094823502004146576 0.048940159380435944 
0.0062854909338057041 0.0081780999898910522 0.047824472188949585 
0.004780688788741827 0.0089199850335717201 0.049452200531959534 
0.0049516381695866585 0.0076460163109004498 0.048280078917741776 
3 0 1 2 
3 0 3 4 
3 0 5 3 
3 0 4 6 
3 0 6 1 
3 0 2 7 
3 0 7 5 
3 2 8 7 
3 2 1 9 
3 2 9 8 
3 8 10 7 
3 8 11 10 
3 8 12 13 
3 8 13 11 
3 8 9 12 
3 10 14 15 
3 10 15 7 
3 10 11 14 
3 14 16 15 
3 14 17 16 
3 14 18 17 
3 14 11 18 
3 15 16 19 
3 15 19 5 
3 15 5 7 
3 5 20 3 
3 5 19 20 
3 3 21 22 
3 3 20 21 
3 3 22 4 
3 22 23 4 
3 22 24 25 
3 22 25 23 
3 22 21 24 
3 4 23 6 
3 6 23 26 
3 6 27 1 
3 6 28 27 
3 6 26 28 
3 29 30 31 
3 29 17 32 
3 29 33 30 
3 29 34 33 
3 29 32 34 
3 29 31 17 
3 31 35 36 
3 31 30 35 
3 31 36 16 
3 31 16 17 
3 36 37 38 
3 36 35 37 
3 36 38 19 
3 36 19 16 
3 19 38 20 
3 17 18 32 
3 39 40 13 
3 39 13 41 
3 40 42 11 
3 40 11 13 
3 42 43 32 
3 42 32 18 
3 42 18 11 
3 13 12 41 
3 27 44 45 
3 27 28 44 
3 27 45 9 
3 27 9 1 
3 45 12 9 
3 45 46 47 
3 45 47 12 
3 45 44 46 
3 25 24 48 
3 25 48 49 
3 25 49 50 
3 25 50 23 
3 23 50 51 
3 23 51 26 
3 26 52 28 
3 26 51 52 
3 38 53 20 
3 38 54 53 
3 38 37 54 
3 53 55 56 
3 53 21 20 
3 53 54 55 
3 53 56 21 
3 21 56 24 
3 43 34 32 
3 43 57 34 
3 57 58 34 
3 57 59 58 
3 34 58 33 
3 33 60 61 
3 33 61 30 
3 33 58 60 
3 60 62 63 
3 60 64 62 
3 60 63 65 
3 60 65 61 
3 60 58 64 
3 61 65 66 
3 61 66 67 
3 61 67 30 
3 67 68 35 
3 67 35 30 
3 67 66 68 
3 35 68 37 
3 69 47 70 
3 69 41 47 
3 41 12 47 
3 47 46 70 
3 28 71 44 
3 28 52 71 
3 44 72 73 
3 44 71 72 
3 44 73 74 
3 44 74 46 
3 56 75 24 
3 56 76 75 
3 56 55 76 
3 75 48 24 
3 75 76 77 
3 75 77 78 
3 75 78 48 
3 48 78 49 
3 50 49 79 
3 50 79 51 
3 51 80 52 
3 51 79 80 
3 52 80 81 
3 52 81 82 
3 52 82 71 
3 68 83 84 
3 68 84 37 
3 68 66 83 
3 84 85 54 
3 84 54 37 
3 84 83 85 
3 54 85 55 
3 86 87 62 
3 86 62 64 
3 86 64 59 
3 64 58 59 
3 88 89 63 
3 88 90 91 
3 88 63 62 
3 88 91 89 
3 88 62 90 
3 89 91 92 
3 89 93 65 
3 89 92 93 
3 89 65 63 
3 93 94 83 
3 93 92 94 
3 93 66 65 
3 93 83 66 
3 74 95 46 
3 74 73 95 
3 95 73 96 
3 95 70 46 
3 71 97 72 
3 71 82 97 
3 72 98 73 
3 72 99 98 
3 72 97 99 
3 78 100 49 
3 78 77 100 
3 49 101 79 
3 49 100 101 
3 85 102 103 
3 85 103 55 
3 85 83 102 
3 103 104 76 
3 103 76 55 
3 103 105 104 
3 103 102 105 
3 76 104 77 
3 106 101 107 
3 106 107 108 
3 106 79 101 
3 106 108 109 
3 106 109 110 
3 106 110 79 
3 110 80 79 
3 110 109 111 
3 110 81 80 
3 110 111 81 
3 81 112 82 
3 81 111 112 
3 83 113 114 
3 83 94 113 
3 83 114 102 
3 87 115 90 
3 87 90 62 
3 115 117 90 
3 115 116 117 
3 90 117 91 
3 91 118 92 
3 91 117 118 
3 118 119 92 
3 118 117 120 
3 118 120 121 
3 118 121 122 
3 118 122 119 
3 119 123 124 
3 119 94 92 
3 119 124 94 
3 119 122 123 
3 124 113 94 
3 124 125 126 
3 124 123 125 
3 124 126 113 
3 98 127 128 
3 98 99 127 
3 98 96 73 
3 98 128 96 
3 82 112 129 
3 82 129 97 
3 97 129 130 
3 97 130 99 
3 131 132 133 
3 131 133 107 
3 131 107 101 
3 131 100 134 
3 131 101 100 
3 131 134 132 
3 107 133 108 
3 100 77 134 
3 104 135 77 
3 104 105 135 
3 77 135 134 
3 114 105 102 
3 114 136 105 
3 114 113 126 
3 114 126 136 
3 109 108 137 
3 109 137 138 
3 109 138 111 
3 138 137 139 
3 138 140 111 
3 138 139 140 
3 140 141 142 
3 140 142 112 
3 140 112 111 
3 140 139 141 
3 142 141 143 
3 142 129 112 
3 142 144 129 
3 142 143 144 
3 145 146 120 
3 145 120 116 
3 120 146 121 
3 120 117 116 
3 147 125 148 
3 147 149 150 
3 147 150 125 
3 147 148 149 
3 125 123 148 
3 125 150 126 
3 122 151 152 
3 122 121 151 
3 122 152 123 
3 152 153 154 
3 152 154 148 
3 152 148 123 
3 152 151 153 
3 148 154 155 
3 148 155 149 
3 130 129 156 
3 130 156 157 
3 130 157 99 
3 157 127 99 
3 157 156 158 
3 129 144 159 
3 129 159 156 
3 135 160 161 
3 135 161 134 
3 135 105 160 
3 161 162 163 
3 161 164 162 
3 161 163 132 
3 161 160 164 
3 161 132 134 
3 132 163 133 
3 133 165 108 
3 133 163 165 
3 165 166 137 
3 165 167 168 
3 165 169 167 
3 165 163 169 
3 165 137 108 
3 165 168 166 
3 137 166 139 
3 136 150 170 
3 136 170 171 
3 136 160 105 
3 136 171 160 
3 136 126 150 
3 139 166 172 
3 139 172 141 
3 172 166 173 
3 172 173 174 
3 172 174 175 
3 172 175 141 
3 174 173 177 
3 174 176 175 
3 176 178 175 
3 178 179 143 
3 178 143 175 
3 143 141 175 
3 143 179 144 
3 150 149 170 
3 146 180 121 
3 180 151 121 
3 180 181 153 
3 180 153 151 
3 154 153 182 
3 154 182 183 
3 154 184 155 
3 154 183 184 
3 155 184 185 
3 155 186 149 
3 155 185 186 
3 186 170 149 
3 186 185 187 
3 186 187 170 
3 159 158 156 
3 159 144 188 
3 159 188 158 
3 188 144 179 
3 162 164 189 
3 162 169 163 
3 162 190 169 
3 162 189 190 
3 190 191 169 
3 190 192 191 
3 190 189 192 
3 169 191 167 
3 193 164 171 
3 193 194 189 
3 193 189 164 
3 193 171 187 
3 193 195 194 
3 193 187 195 
3 164 160 171 
3 171 170 187 
3 168 196 197 
3 168 173 166 
3 168 197 173 
3 168 167 196 
3 197 196 198 
3 197 198 199 
3 197 177 173 
3 197 199 177 
3 187 185 195 
3 181 182 153 
3 181 200 182 
3 200 201 182 
3 182 201 183 
3 184 202 203 
3 184 204 205 
3 184 205 202 
3 184 183 204 
3 184 203 185 
3 203 202 206 
3 203 195 185 
3 203 206 195 
3 191 207 208 
3 191 208 167 
3 191 192 207 
3 208 207 209 
3 208 196 167 
3 208 210 196 
3 208 209 210 
3 210 198 196 
3 210 209 211 
3 212 213 207 
3 212 214 213 
3 212 206 214 
3 212 194 206 
3 212 192 194 
3 212 207 192 
3 192 189 194 
3 194 195 206 
3 206 202 214 
3 201 204 183 
3 201 215 204 
3 215 216 205 
3 215 205 204 
3 216 217 218 
3 216 218 205 
3 217 219 220 
3 217 220 218 
3 218 202 205 
3 218 220 214 
3 218 214 202 
3 221 222 219 
3 221 211 222 
3 211 209 222 
3 213 220 222 
3 213 209 207 
3 213 214 220 
3 213 222 209 
3 222 220 219 
