ply
format ascii 1.0
comment VTK generated PLY File
obj_info vtkPolyData points and polygons: vtk4.0
element vertex 483
property float x
property float y
property float z
element face 886
property list uchar int vertex_indices
end_header
0.022017532959580421 0.054860074073076248 0.0042944382876157761 
0.021012602373957634 0.054870776832103729 0.0029748356901109219 
0.022596362978219986 0.05327032133936882 0.0039914427325129509 
0.021611133590340614 0.053262759000062943 0.0027203988283872604 
-0.021275792270898819 0.055321261286735535 0.0032709161750972271 
0.019581252709031105 0.054886024445295334 0.002078198129311204 
0.020365338772535324 0.052847865968942642 0.0018647108227014542 
0.018316246569156647 0.053409282118082047 0.0016260328702628613 
0.017954327166080475 0.054903358221054077 0.0017726364312693477 
0.017739372327923775 0.054704561829566956 0.0016965265385806561 
0.017581729218363762 0.054907325655221939 0.0016231726622208953 
0.014896971173584461 0.054935924708843231 0.0013062497600913048 
0.014589289203286171 0.054498542100191116 0.0013898992910981178 
0.013800148852169514 0.054947610944509506 0.00084720563609153032 
0.011800095438957214 0.053915560245513916 0.00095388852059841156 
0.012646393850445747 0.054959900677204132 0.00049376318929716945 
0.013392696157097816 0.053211338818073273 0.0019496087916195393 
0.01126528438180685 0.054974611848592758 -0.00039168164948932827 
0.0098921312019228935 0.054989241063594818 -0.0012893861858174205 
0.0091954059898853302 0.053492460399866104 -0.00051595980767160654 
0.0084842005744576454 0.055004239082336426 -0.0022611555177718401 
0.0077623426914215088 0.053399428725242615 -0.001477325800806284 
0.0070663047954440117 0.05501934140920639 -0.0032182955183088779 
0.0052510262466967106 0.055038679391145706 -0.0041907220147550106 
0.006329280324280262 0.053306393325328827 -0.0024386916775256395 
0.0052717314101755619 0.054698754101991653 -0.0041611986234784126 
0.0032223956659436226 0.055060289800167084 -0.004406485240906477 
0.0032381401397287846 0.054577518254518509 -0.0043805260211229324 
0.0011927451705560088 0.055081915110349655 -0.0046123960055410862 
0.001204548985697329 0.054456286132335663 -0.0045998534187674522 
-0.00083799328422173858 0.055103544145822525 -0.004807234276086092 
-0.00082904211012646556 0.054335050284862518 -0.0048191803507506847 
-0.0028113734442740679 0.055124569684267044 -0.0043810922652482986 
-0.002791964216157794 0.054403368383646011 -0.0043431906960904598 
-0.0047548864968121052 0.054471686482429504 -0.0038672012742608786 
-0.0047824662178754807 0.055145565420389175 -0.0039444752037525177 
-0.0067178085446357727 0.054540008306503296 -0.0033912116196006536 
-0.0067515079863369465 0.055166538804769516 -0.0034987067338079214 
-0.0087889861315488815 0.055188242346048355 -0.0022182508837431669 
-0.010796308517456055 0.055209625512361526 -0.00089081795886158943 
-0.0087122982367873192 0.054720744490623474 -0.0020878533832728863 
-0.010706786997616291 0.054901484400033951 -0.00078449537977576256 
-0.012599632143974304 0.054260831326246262 0.00084946345305070281 
-0.013157907873392105 0.055234786123037338 0.0005151621880941093 
-0.015616620890796185 0.055260974913835526 0.0011759651824831963 
-0.014003003016114235 0.053305629640817642 0.001838839496485889 
-0.017292965203523636 0.053730029612779617 0.0016544465906918049 
-0.016077326610684395 0.055265884846448898 0.0011680072639137506 
-0.016264587640762329 0.052746668457984924 0.001956145279109478 
-0.018531970679759979 0.055292032659053802 0.001725323498249054 
-0.018712107092142105 0.055037841200828552 0.0017953196074813604 
-0.019002445042133331 0.055297043174505234 0.0019802078604698181 
-0.019350271672010422 0.053498487919569016 0.0015314064221456647 
-0.019840488210320473 0.053738825023174286 0.0017631810624152422 
-0.020067311823368073 0.05530838668346405 0.0023436748888343573 
-0.020660003647208214 0.053822509944438934 0.0020461417734622955 
-0.021779950708150864 0.053880710154771805 0.0029272018000483513 
-0.0044470648281276226 0.025383204221725464 -0.0076515930704772472 
-0.002390474546700716 0.025323722511529922 -0.0076441457495093346 
-0.00033388417796231806 0.025264240801334381 -0.0076366988942027092 
0.001722706132568419 0.02520475909113884 -0.0076292515732347965 
0.0037792965304106474 0.025145275518298149 -0.0076218037866055965 
0.02322942391037941 0.051324933767318726 0.0027578764129430056 
0.023862482979893684 0.049379549920558929 0.0015243100933730602 
-0.022284109145402908 0.052440162748098373 0.0025834874249994755 
-0.022755524143576622 0.051123432815074921 0.0016838598530739546 
-0.011472034268081188 0.053081989288330078 0.0013686304446309805 
-0.012620509602129459 0.052068483084440231 0.002331823343411088 
-0.015236211940646172 0.051763307303190231 0.0022578439675271511 
-0.013696858659386635 0.050598099827766418 0.0027049952186644077 
-0.0098551148548722267 0.053780030459165573 -0.00028038021991960704 
-0.0061131943948566914 0.053025644272565842 -0.002568085677921772 
-0.0081779211759567261 0.053758192807435989 -0.001574024441652 
0.0012257349444553256 0.053007178008556366 -0.0039607789367437363 
-0.00060950656188651919 0.052904084324836731 -0.0042411396279931068 
-0.002444069366902113 0.052944604307413101 -0.0036834548227488995 
-0.0042786318808794022 0.052985124289989471 -0.0031257700175046921 
0.0048962179571390152 0.053213361650705338 -0.0034000577870756388 
0.0030609762761741877 0.053110267966985703 -0.0036804182454943657 
0.010953797027468681 0.052871223539113998 0.0014140139101073146 
0.0081382282078266144 0.052434846758842468 -6.7584063799586147e-05 
0.0070373527705669403 0.052523422986268997 -0.00098294240888208151 
0.0057716057635843754 0.052500419318675995 -0.0018878859700635076 
0.0041236341930925846 0.05203552171587944 -0.0025287275202572346 
0.010534599423408508 0.050619442015886307 0.0028545132372528315 
0.0095974383875727654 0.051654178649187088 0.0017962808487936854 
0.012196101248264313 0.051924139261245728 0.0025093182921409607 
0.015900546684861183 0.052984368056058884 0.0019414643757045269 
0.01456815842539072 0.051813609898090363 0.0024582825135439634 
0.013235771097242832 0.050642851740121841 0.0029751004185527563 
0.011414069682359695 0.049297627061605453 0.0032969990279525518 
0.01690012589097023 0.050970941781997681 0.0016605653800070286 
0.022143367677927017 0.051478136330842972 0.0016894798027351499 
0.020803201943635941 0.051262270659208298 0.0010037841275334358 
0.018893122673034668 0.052114002406597137 0.0015555390855297446 
0.019230520352721214 0.050728145986795425 0.00081791781121864915 
-0.021252693608403206 0.05233662948012352 0.001748608541674912 
-0.021821821108460426 0.050526462495326996 0.0005699691828340292 
-0.019988436251878738 0.05195913091301918 0.0012674932368099689 
-0.018432393670082092 0.051231291145086288 0.0012430486967787147 
-0.020419273525476456 0.050313353538513184 0.00024877453688532114 
-0.016172777861356735 0.049859907478094101 0.0017725381767377257 
0.0056115426123142242 0.02568805031478405 -0.0076188095845282078 
0.0092760352417826653 0.026773599907755852 -0.0076128211803734303 
0.0074437893927097321 0.026230825111269951 -0.0076158158481121063 
0.011108281090855598 0.027316374704241753 -0.0076098255813121796 
0.012608501128852367 0.028199568390846252 -0.0075897346250712872 
-0.011960537172853947 0.028068650513887405 -0.0077264723367989063 
-0.010082169435918331 0.027397289872169495 -0.0077077527530491352 
-0.008203800767660141 0.026725927367806435 -0.0076890331692993641 
-0.0063254330307245255 0.026054566726088524 -0.0076703126542270184 
-0.0042567062191665173 0.027529090642929077 -0.0078046852722764015 
-0.0023684245534241199 0.0274643674492836 -0.0077945441007614136 
0.0014081383123993874 0.027334924787282944 -0.0077742626890540123 
-0.00048014309140853584 0.027399646118283272 -0.0077844038605690002 
0.003296419745311141 0.027270201593637466 -0.007764122448861599 
0.0050165341235697269 0.027736946940422058 -0.0077559659257531166 
0.024219471961259842 0.048144839704036713 0.00035099510569125414 
0.02267560176551342 0.049693509936332703 0.00065856077708303928 
0.024933449923992157 0.045675419270992279 -0.0019956349860876799 
0.024576460942625999 0.046910129487514496 -0.00082231999840587378 
0.02472434937953949 0.044026024639606476 -0.0030910451896488667 
-0.023698354139924049 0.048489972949028015 -0.00011539555271156132 
-0.023226939141750336 0.049806702882051468 0.00078423216473311186 
-0.010344436392188072 0.051903143525123596 0.0018877973780035973 
-0.0095097916200757027 0.049621999263763428 0.003069121390581131 
-0.011238017119467258 0.050831332802772522 0.0028248070739209652 
-0.0088277282193303108 0.050804618746042252 0.0021092882379889488 
-0.0090034427121281624 0.052658580243587494 0.00022373486717697233 
-0.012157505378127098 0.049432896077632904 0.0031521462369710207 
-0.010252161882817745 0.048187680542469025 0.0034331302158534527 
-0.0075583187863230705 0.052842110395431519 -0.0011721753980964422 
-0.0078245401382446289 0.05172329768538475 0.00050542544340714812 
-0.0049564242362976074 0.051791928708553314 -0.0017740735784173012 
-0.0067070736549794674 0.052038080990314484 -0.00077484408393502235 
-0.0002796208718791604 0.051841489970684052 -0.0032917242497205734 
-0.0018385552102699876 0.051824968308210373 -0.0027858405373990536 
-0.0033974896650761366 0.051808446645736694 -0.0022799570579081774 
0.0019220066023990512 0.051938507705926895 -0.0029102261178195477 
0.0070810508914291859 0.051377236843109131 0.00038079166552051902 
0.0064753489568829536 0.049456257373094559 0.0023011474404484034 
0.0056470097042620182 0.05052490159869194 0.00061315251514315605 
0.0082410797476768494 0.050437137484550476 0.0021785479038953781 
0.0056023425422608852 0.051706381142139435 -0.0010739678982645273 
0.0046464507468044758 0.050948668271303177 -0.00059816474094986916 
0.0029289876110851765 0.05082310363650322 -0.0013972405577078462 
0.0088730966672301292 0.049314744770526886 0.0031997079495340586 
0.0069727017544209957 0.048223625868558884 0.0033371534664183855 
0.0075697344727814198 0.046805713325738907 0.0038120804820209742 
0.0095923673361539841 0.047952402383089066 0.0036188974045217037 
0.015520546585321426 0.049966074526309967 0.0021596155129373074 
0.014140964485704899 0.048961203545331955 0.0026586656458675861 
0.012221435084939003 0.047741830348968506 0.0030164681375026703 
0.017495179548859596 0.04859258234500885 0.00051592540694400668 
0.01956791989505291 0.049342289566993713 8.0296478699892759e-05 
0.021241065114736557 0.049676675349473953 0.00014285756333265454 
0.021470960229635239 0.04798666387796402 -0.0012305345153436065 
0.01969972625374794 0.047826610505580902 -0.0010872422717511654 
0.017540993168950081 0.047337744385004044 -0.00048760985373519361 
0.023028064519166946 0.047897834330797195 -0.00094714824808761477 
-0.022390946745872498 0.048716295510530472 -0.00060867023421451449 
-0.023938756436109543 0.046914275735616684 -0.0014242575271055102 
-0.020850110799074173 0.048667572438716888 -0.00076994416303932667 
-0.022549530491232872 0.047280281782150269 -0.0017899775411933661 
-0.018779277801513672 0.049800317734479904 0.00035229109926149249 
-0.021031813696026802 0.046773694455623627 -0.0022773388773202896 
-0.019126161932945251 0.04836934432387352 -0.00053846644004806876 
-0.019247526302933693 0.046783220022916794 -0.0018103771144524217 
-0.014572693035006523 0.04882793128490448 0.0022561417426913977 
-0.016768055036664009 0.047610685229301453 0.00021289348660502583 
-0.015093589201569557 0.046894300729036331 0.00087252428056672215 
-0.012972611933946609 0.047795958817005157 0.0027397451922297478 
-0.010911828838288784 0.046606194227933884 0.0030949879437685013 
0.014108721166849136 0.029082760214805603 -0.0075696422718465328 
0.015608940273523331 0.029965952038764954 -0.0075495499186217785 
0.017109161242842674 0.030849143862724304 -0.0075294580310583115 
0.010176876559853554 0.029137181118130684 -0.0077314921654760838 
0.0067366478033363819 0.028203690424561501 -0.007747807539999485 
0.0084567619487643242 0.028670435771346092 -0.007739650085568428 
-0.018047437071800232 0.03217538446187973 -0.0077009778469800949 
-0.016525711864233017 0.031148701906204224 -0.0077073513530194759 
-0.015003986656665802 0.030122017487883568 -0.007713724859058857 
-0.013482262380421162 0.029095334932208061 -0.0077200988307595253 
-0.011249629780650139 0.029911193996667862 -0.0077707446180284023 
-0.009501398541033268 0.029315667226910591 -0.007779229898005724 
-0.0077531677670776844 0.02872014231979847 -0.0077877151779830456 
-0.0060049369931221008 0.028124615550041199 -0.0077961999922990799 
0.0028209136798977852 0.02971937507390976 -0.0074872300028800964 
-0.0040606153197586536 0.029993155971169472 -0.0074949730187654495 
-0.0017667721258476377 0.029901895672082901 -0.00749239232391119 
0.00052707077702507377 0.02981063537299633 -0.0074898106977343559 
0.023380529135465622 0.046102158725261688 -0.0025528573896735907 
0.024306150153279305 0.040727235376834869 -0.0052818651311099529 
0.024515248835086823 0.042376630008220673 -0.0041864551603794098 
-0.024179156869649887 0.045338574796915054 -0.0027331197634339333 
-0.024419559165835381 0.043762873858213425 -0.0040419818833470345 
-0.0073110200464725494 0.049706093966960907 0.0023307790979743004 
-0.0054708258248865604 0.048833515495061874 0.0024438858963549137 
-0.0077815661206841469 0.048412665724754333 0.0033134354744106531 
-0.0051144813187420368 0.050032936036586761 0.00093729211948812008 
-0.00664563849568367 0.050788011401891708 0.0007871160632930696 
-0.0083468193188309669 0.046942461282014847 0.0037141141947358847 
-0.0057614198885858059 0.047468464821577072 0.0034558991901576519 
-0.0058010313659906387 0.051289971917867661 -0.00049347872845828533 
-0.0030228996183723211 0.050559893250465393 -0.00097924703732132912 
7.8004297392908484e-05 0.050447423011064529 -0.0013986253179609776 
-0.0014724476495757699 0.05050365999341011 -0.0011889361776411533 
0.0015034959651529789 0.050635263323783875 -0.0013979329960420728 
0.0019109982531517744 0.049887940287590027 -0.00014954019570723176 
0.0035709780640900135 0.050247836858034134 -0.00027586365467868745 
0.0042129685170948505 0.049672570079565048 0.00084551336476579309 
0.0047096177004277706 0.048475377261638641 0.0024237469770014286 
0.0023392466828227043 0.049184679985046387 0.0010367413051426411 
0.0026662256568670273 0.047955013811588287 0.0025551472790539265 
0.0050723073072731495 0.047132506966590881 0.0034745989833027124 
0.0029114368371665478 0.046560250222682953 0.0036498631816357374 
0.0055471020750701427 0.045659024268388748 0.0040052635595202446 
0.0088708251714706421 0.045735083520412445 0.0035368031822144985 
0.010301904752850533 0.046522453427314758 0.0033742703963071108 
0.016056712716817856 0.047870650887489319 0.0010188599117100239 
0.01461824681609869 0.047148719429969788 0.0015217943582683802 
0.016087070107460022 0.046843372285366058 0.00013615917123388499 
0.01983153261244297 0.046310927718877792 -0.0022547808475792408 
0.02170085720717907 0.046296648681163788 -0.0026039266958832741 
0.021437179297208786 0.044905226677656174 -0.0034997325856238604 
0.017586808651685715 0.046082910150289536 -0.0014911451144143939 
0.019446603953838348 0.044496845453977585 -0.0034265259746462107 
0.023144572973251343 0.044562608003616333 -0.0035521131940186024 
-0.022708114236593246 0.045844271779060364 -0.002971285255625844 
-0.022866697981953621 0.044408258050680161 -0.0041525927372276783 
-0.023913023993372917 0.042229250073432922 -0.0046945256181061268 
-0.020690353587269783 0.04322369396686554 -0.0045953658409416676 
-0.022265618667006493 0.042523719370365143 -0.0049827597104012966 
-0.021213514730334282 0.044879816472530365 -0.0037847338244318962 
-0.019368892535567284 0.045197099447250366 -0.0030822877306491137 
-0.015184547752141953 0.045873217284679413 -0.00013695211964659393 
-0.016859026625752449 0.046418238431215286 -0.00086602685041725636 
-0.011989862658083439 0.045453395694494247 0.0018945519113913178 
-0.01341912429779768 0.046177919954061508 0.0015321550890803337 
-0.0061422218568623066 0.045940890908241272 0.0039242589846253395 
-0.0072763296775519848 0.044716190546751022 0.0036518627312034369 
-0.0088510457426309586 0.04541642963886261 0.0034502306953072548 
0.018569163978099823 0.03238658607006073 -0.0073221726343035698 
0.020029168576002121 0.033924032002687454 -0.0071148867718875408 
0.02148917131125927 0.03546147421002388 -0.0069076013751327991 
0.022428164258599281 0.037216726690530777 -0.0063656894490122795 
0.012071697041392326 0.030216317623853683 -0.0076986770145595074 
0.013966518454253674 0.031295455992221832 -0.0076658613979816437 
0.015861339867115021 0.032374594360589981 -0.00763304578140378 
0.0049521885812282562 0.030229886993765831 -0.0074676014482975006 
0.0070834634825587273 0.030740397050976753 -0.0074479733593761921 
0.0092147383838891983 0.031250905245542526 -0.0074283457361161709 
-0.022393420338630676 0.037628371268510818 -0.0066521572880446911 
-0.021306924521923065 0.036265123635530472 -0.0069143627770245075 
-0.020220428705215454 0.034901879727840424 -0.0071765678003430367 
-0.019133932888507843 0.033538632094860077 -0.0074387737549841404 
-0.017009831964969635 0.033683735877275467 -0.0076594934798777103 
-0.015089764259755611 0.032426223158836365 -0.0076965773478150368 
-0.013169697485864162 0.031168708577752113 -0.0077336616814136505 
-0.010524505749344826 0.032020673155784607 -0.0074241454713046551 
-0.0083698751404881477 0.031344834715127945 -0.0074477549642324448 
-0.0062152454629540443 0.030668994411826134 -0.0074713644571602345 
-0.0039722975343465805 0.031385716050863266 -0.0070739788934588432 
-0.0017822012305259705 0.031293958425521851 -0.0070761800743639469 
0.00040737391100265086 0.031212331727147102 -0.0070753316394984722 
0.0025941766798496246 0.031140957027673721 -0.0070714973844587803 
0.022672664374113083 0.041483510285615921 -0.0055506257340312004 
0.023367157205939293 0.038971982896327972 -0.0058237770572304726 
0.022908618673682213 0.043023057281970978 -0.004551369696855545 
-0.023406490683555603 0.040695622563362122 -0.0053470698185265064 
-0.02289995551109314 0.039161998778581619 -0.0059996135532855988 
-0.0035833241418004036 0.049277860671281815 0.0010874681174755096 
-0.0036306316033005714 0.047960933297872543 0.0025569924619048834 
-0.0015588997630402446 0.04898732528090477 0.0011577187106013298 
-0.0015038989949971437 0.047697793692350388 0.002621769905090332 
-0.0014953531790524721 0.046256128698587418 0.0037117453757673502 
-0.0037412729579955339 0.046524260193109512 0.0035983629059046507 
-0.0015217395266517997 0.044704943895339966 0.0042574498802423477 
-0.0039376248605549335 0.044939320534467697 0.004134404007345438 
-0.0014552250504493713 0.049748905003070831 -3.2225711038336158e-05 
0.00027176455478183925 0.049572106450796127 -8.5328123532235622e-05 
0.00046552476123906672 0.048696786165237427 0.0012279691873118281 
0.00062283349689096212 0.047434650361537933 0.0026865473482757807 
0.00075056659989058971 0.045987997204065323 0.0038251276127994061 
0.0032206240575760603 0.045064795762300491 0.0041928798891603947 
0.00089414580725133419 0.044470567256212234 0.0043804962188005447 
0.007439744658768177 0.044947709888219833 0.0036993359681218863 
0.0043581523932516575 0.04370744526386261 0.0040422780439257622 
0.0060086646117269993 0.04416033998131752 0.003861868754029274 
0.012700696475803852 0.046145368367433548 0.0020166062749922276 
0.010783147066831589 0.045142017304897308 0.0025114184245467186 
0.0093064457178115845 0.04436912015080452 0.0027448192704468966 
0.014609785750508308 0.045368209481239319 -0.00012629988486878574 
0.017257586121559143 0.04465852677822113 -0.002489232923835516 
0.015803342685103416 0.044475927948951721 -0.0017718956805765629 
0.016098298132419586 0.045725561678409576 -0.00080872251419350505 
0.021173503249883652 0.043513800948858261 -0.0043955384753644466 
0.019061675295233727 0.042682759463787079 -0.0045982715673744678 
0.020909825339913368 0.042122378945350647 -0.0052913445979356766 
0.020092008635401726 0.040677119046449661 -0.005761303473263979 
0.016928363591432571 0.043234139680862427 -0.0034873206168413162 
0.017914976924657822 0.040904711931943893 -0.0052540292963385582 
0.021794242784380913 0.039849326014518738 -0.0060463040135800838 
-0.021063460037112236 0.038754642009735107 -0.0066430941224098206 
-0.021664539352059364 0.040639180690050125 -0.0058129266835749149 
-0.020167192444205284 0.041567571461200714 -0.0054059978574514389 
-0.019644031301140785 0.039911452680826187 -0.0062166298739612103 
-0.019712250679731369 0.037064339965581894 -0.0069818943738937378 
-0.018705325201153755 0.043172735720872879 -0.0041924170218408108 
-0.018041757866740227 0.04114837571978569 -0.0053025465458631516 
-0.018394878134131432 0.03841593861579895 -0.0065542371012270451 
-0.016950000077486038 0.045225787907838821 -0.0019449472893029451 
-0.016580497846007347 0.043878864496946335 -0.0028668413870036602 
-0.015227952040731907 0.044907882809638977 -0.0010600491659715772 
-0.013505905866622925 0.044589977711439133 -0.00017515082436148077 
-0.012034175917506218 0.04396708682179451 0.00032219727290794253 
-0.010560601018369198 0.044728867709636688 0.002256948733702302 
-0.0091313403099775314 0.044004343450069427 0.0026193456724286079 
-0.0041268998757004738 0.04331570491194725 0.0040551270358264446 
-0.0057016150094568729 0.044015947729349136 0.0038534949999302626 
-0.0023988906759768724 0.043144356459379196 0.0041711167432367802 
0.017253359779715538 0.033776715397834778 -0.0074345842003822327 
0.018645379692316055 0.035178836435079575 -0.0072361212223768234 
0.020037399604916573 0.036580957472324371 -0.0070376596413552761 
0.011001558974385262 0.032204389572143555 -0.0073753446340560913 
0.01278837863355875 0.033157873898744583 -0.0073223430663347244 
0.014575199224054813 0.034111358225345612 -0.0072693419642746449 
0.0046310541220009327 0.031641285866498947 -0.0070444256998598576 
0.0062948358245193958 0.033376716077327728 -0.0066368049010634422 
0.008258533664047718 0.033783808350563049 -0.0066273240372538567 
0.0098857907578349113 0.034562535583972931 -0.0065582380630075932 
-0.018361041322350502 0.03537403792142868 -0.0073206932283937931 
-0.015896573662757874 0.035424914211034775 -0.0072294515557587147 
-0.012315195053815842 0.033155418932437897 -0.0073592476546764374 
-0.014105883426964283 0.034290164709091187 -0.0072943493723869324 
-0.0078366594389081001 0.033990968018770218 -0.0065849106758832932 
-0.0098129985854029655 0.034597311168909073 -0.0065508736297488213 
-0.0060854884795844555 0.031975109130144119 -0.0070646768435835838 
-0.003883979981765151 0.032778277993202209 -0.0066529856994748116 
-0.0058603198267519474 0.033384621143341064 -0.0066189481876790524 
-0.0038012710865586996 0.034269794821739197 -0.0057735550217330456 
-0.0018001735443249345 0.032706364989280701 -0.0066539118997752666 
-0.0018197369063273072 0.034179117530584335 -0.0057761818170547485 
0.00028363295132294297 0.032634451985359192 -0.006654839962720871 
0.0001637434761505574 0.034099694341421127 -0.0057721394114196301 
0.0021467423066496849 0.034031663089990616 -0.0057611297816038132 
0.0023674394469708204 0.032562538981437683 -0.0066557666286826134 
0.0040135122835636139 0.034410800784826279 -0.005767864640802145 
0.0043311375193297863 0.032969627529382706 -0.0066462857648730278 
0.020915821194648743 0.038215141743421555 -0.0065419813618063927 
0.0027076401747763157 0.043254554271697998 0.0042226868681609631 
0.0010571280727162957 0.042801663279533386 0.0044030961580574512 
-0.00067088135983794928 0.042973008006811142 0.0042871064506471157 
0.0078297434374690056 0.043596222996711731 0.0029782203491777182 
0.0046355174854397774 0.042326521128416061 0.003395990701392293 
0.0063530420884490013 0.042823325842618942 0.0032116211950778961 
0.010882360860705376 0.043784886598587036 0.0011736784363165498 
0.012746073305606842 0.044576548039913177 0.00052368926117196679 
0.014067896641790867 0.043378166854381561 -0.0018244676757603884 
0.015498130582273006 0.043306153267621994 -0.0026558942627161741 
0.015979032963514328 0.04196055606007576 -0.0040091783739626408 
0.019274193793535233 0.039231862872838974 -0.0062312637455761433 
0.016768278554081917 0.039126664400100708 -0.0059097870253026485 
0.01845637708902359 0.037786602973937988 -0.006701223086565733 
0.01716265082359314 0.036561522632837296 -0.0068905949592590332 
0.01495429128408432 0.037623330950737 -0.0061649256385862827 
0.014120945706963539 0.038605988025665283 -0.0054115597158670425 
0.015029702335596085 0.040686972439289093 -0.0045310351997613907 
-0.017145726829767227 0.036920424550771713 -0.0068918447941541672 
-0.014755723997950554 0.037469241768121719 -0.00629826495423913 
-0.016946412622928619 0.039921998977661133 -0.0056344526819884777 
-0.015851069241762161 0.038695618510246277 -0.0059663588181138039 
-0.016210997477173805 0.042531941086053848 -0.0037887354847043753 
-0.014919999055564404 0.041199177503585815 -0.0042177885770797729 
-0.015031731687486172 0.043831981718540192 -0.00194493995513767 
-0.013268870301544666 0.043078005313873291 -0.0016605348791927099 
-0.014739932492375374 0.04280497133731842 -0.0027246351819485426 
-0.010562445968389511 0.043344195932149887 0.00081954541383311152 
-0.0074919629842042923 0.043321549892425537 0.0028623335529118776 
-0.0090907169505953789 0.042721308767795563 0.0013168936129659414 
-0.0024086504708975554 0.041748277842998505 0.0034871161915361881 
-0.0042132097296416759 0.041955962777137756 0.0033483095467090607 
-0.0058525865897536278 0.042638756334781647 0.003105321666225791 
0.015868924558162689 0.035336442291736603 -0.0070799682289361954 
0.013140304945409298 0.036119997501373291 -0.0064200637862086296 
0.011513047851622105 0.035341266542673111 -0.0064891506917774677 
0.0077399760484695435 0.035203740000724792 -0.0057602748274803162 
0.0058787548914551735 0.03480156883597374 -0.0057675419375300407 
-0.013108149170875549 0.036511931568384171 -0.0063824676908552647 
-0.01146057341247797 0.035554621368646622 -0.0064666708931326866 
-0.0094419121742248535 0.03599533811211586 -0.0057013062760233879 
-0.0075628082267940044 0.035408850759267807 -0.0057320166379213333 
-0.0056818495504558086 0.034833449870347977 -0.0057561653666198254 
0.0019260448170825839 0.035500787198543549 -0.0048664924688637257 
0.0017302443739026785 0.036726392805576324 -0.0032969382591545582 
0.0036911692004650831 0.035875082015991211 -0.0048754033632576466 
4.4509484723675996e-05 0.035587627440690994 -0.0048757027834653854 
-0.0037185612600296736 0.035761311650276184 -0.0048941238783299923 
-0.0019103273516520858 0.036918342113494873 -0.0033536925911903381 
-0.001837025978602469 0.035674471408128738 -0.0048849135637283325 
-0.0055026491172611713 0.036305330693721771 -0.0048799957148730755 
-0.0037317043170332909 0.037023726850748062 -0.0033705299720168114 
-8.9262088295072317e-05 0.036819487810134888 -0.0033289811108261347 
0.0012004680465906858 0.0413329117000103 0.003764729481190443 
-0.00060409115394577384 0.041540592908859253 0.0036259228363633156 
0.0029179928824305534 0.041829716414213181 0.0035803602077066898 
0.0079461568966507912 0.042366437613964081 0.0017711579566821456 
0.0064780553802847862 0.041657213121652603 0.0020698977168649435 
0.0094142593443393707 0.043075662106275558 0.0014724181964993477 
0.01070099975913763 0.04246993362903595 -0.00032759379246272147 
0.012384449131786823 0.042924050241708755 -0.0010760306613519788 
0.013341798447072506 0.041864078491926193 -0.0028735876549035311 
0.013381661847233772 0.039592470973730087 -0.0046824635937809944 
0.012638682499527931 0.040422622114419937 -0.0036577011924237013 
0.010798042640089989 0.03655928373336792 -0.0056816209107637405 
0.012436963617801666 0.037308983504772186 -0.0056269778870046139 
-0.014192362315952778 0.038667824119329453 -0.0054725534282624722 
-0.012608625926077366 0.037765886634588242 -0.0055549009703099728 
-0.011788627132773399 0.042546652257442474 -0.0011554923839867115 
-0.012258335947990417 0.041349735110998154 -0.0027872859500348568 
-0.0088281426578760147 0.041483946144580841 -0.00014540768461301923 
-0.010308384895324707 0.042015299201011658 -0.00065045006340369582 
-0.0074552991427481174 0.042070366442203522 0.0016364660114049911 
-0.013628998771309853 0.039866410195827484 -0.0046468419022858143 
-0.010910172015428543 0.039573404937982559 -0.0036814920604228973 
-0.012109607458114624 0.039042063057422638 -0.0047151409089565277 
-0.0041844639927148819 0.040768489241600037 0.0022756108082830906 
-0.005819881334900856 0.041419427841901779 0.0019560384098440409 
-0.0023568430915474892 0.04056476429104805 0.0024027039762586355 
0.0092609478160738945 0.035856533795595169 -0.0057326052337884903 
0.0054562930017709732 0.036249373108148575 -0.0048843147233128548 
0.0034432176034897566 0.037101447582244873 -0.0033525084145367146 
0.0051591009832918644 0.037481244653463364 -0.0034030547831207514 
0.0072214175015687943 0.036623667925596237 -0.0048932256177067757 
0.0068756542168557644 0.037867434322834015 -0.0034467671066522598 
0.0090439170598983765 0.038747180253267288 -0.0035380213521420956 
0.0094775203615427017 0.037560820579528809 -0.0048635588027536869 
-0.011024646461009979 0.036874815821647644 -0.0056310724467039108 
-0.0090708248317241669 0.037393361330032349 -0.0048517389222979546 
-0.0071589509025216103 0.038101028650999069 -0.003493491793051362 
-0.0072867367416620255 0.03684934601187706 -0.0048658670857548714 
-0.010590216144919395 0.038217712193727493 -0.0047834399156272411 
-0.0088797826319932938 0.038652770221233368 -0.003543769009411335 
-0.0054415608756244183 0.037559706717729568 -0.0034338305704295635 
-0.0037448478396981955 0.03828614205121994 -0.0018469361821189523 
-0.0019850837998092175 0.038174759596586227 -0.0018070852383971214 
-0.0053928117267787457 0.038828153163194656 -0.0019765570759773254 
-0.0038757009897381067 0.039029225707054138 -0.00050771143287420273 
-0.00022532000730279833 0.038063377141952515 -0.0017672346439212561 
-0.0020951901096850634 0.038895990699529648 -0.0004330982337705791 
0.0015344436978921294 0.0379519984126091 -0.0017273834673687816 
-0.00031728422618471086 0.038762133568525314 -0.00036001895205117762 
0.0031995933968573809 0.038338400423526764 -0.0018183583160862327 
0.0031281374394893646 0.039038866758346558 -0.00043128005927428603 
0.0014572748914361 0.038626775145530701 -0.0002907686575781554 
0.0047515030018985271 0.041157249361276627 0.0022655618377029896 
0.0030249506235122681 0.040657281875610352 0.002461225725710392 
0.0012983983615413308 0.040157314389944077 0.0026568898465484381 
0.0085736559703946114 0.041542068123817444 0.00011318967881379649 
0.0064463121816515923 0.040614202618598938 0.00055397319374606013 
0.012049355544149876 0.041334971785545349 -0.0026394070591777563 
0.01075691357254982 0.040805865079164505 -0.0024052269291132689 
0.0086068231612443924 0.040723532438278198 -0.0010817819274961948 
0.011733622290194035 0.03849797323346138 -0.0048338919878005981 
0.01124526746571064 0.039651919156312943 -0.003619559109210968 
-0.010473538190126419 0.040630955249071121 -0.0025115425232797861 
-0.0086887404322624207 0.039912175387144089 -0.0022357988636940718 
-0.0072209462523460388 0.040913399308919907 0.0001802326733013615 
-0.004006554838269949 0.039772309362888336 0.00083151343278586864 
-0.0056137507781386375 0.040342856198549271 0.00050587306031957269 
-0.0022110010031610727 0.039615392684936523 0.00093629106413573027 
-0.00052922236500307918 0.040361039340496063 0.0025297969114035368 
0.0048647429794073105 0.038724798709154129 -0.0019093332812190056 
0.004805542528629303 0.039450407028198242 -0.00057664798805490136 
0.006488102488219738 0.039862703531980515 -0.00072316743899136782 
0.0065298923291265965 0.039111200720071793 -0.0020003081299364567 
0.0086434027180075645 0.039958532899618149 -0.0022027674131095409 
-0.0070407763123512268 0.039370164275169373 -0.0021061778534203768 
-0.0055037615820765495 0.039558004587888718 -0.0007837028824724257 
-0.00041544745909050107 0.039458472281694412 0.0010410686954855919 
0.0013801060849800706 0.039301555603742599 0.0011458463268354535 
0.003068841528147459 0.039739102125167847 0.00094855530187487602 
0.0047575770877301693 0.040176652371883392 0.00075126427691429853 
3 0 3 1 
3 0 2 3 
3 1 6 5 
3 1 3 6 
3 5 6 7 
3 5 7 8 
3 8 7 9 
3 8 9 10 
3 10 9 11 
3 11 9 12 
3 11 12 13 
3 13 14 15 
3 13 16 14 
3 13 12 16 
3 15 14 17 
3 17 19 18 
3 17 14 19 
3 18 19 20 
3 20 19 21 
3 20 21 22 
3 22 24 25 
3 22 21 24 
3 22 25 23 
3 23 27 26 
3 23 25 27 
3 26 27 29 
3 26 29 28 
3 28 31 30 
3 28 29 31 
3 30 33 32 
3 30 31 33 
3 32 34 35 
3 32 33 34 
3 35 36 37 
3 35 34 36 
3 37 36 38 
3 38 40 39 
3 38 36 40 
3 39 40 41 
3 39 41 42 
3 39 42 43 
3 43 45 44 
3 43 42 45 
3 44 46 47 
3 44 45 48 
3 44 48 46 
3 47 46 49 
3 49 46 50 
3 49 50 51 
3 51 50 52 
3 51 52 53 
3 51 53 54 
3 54 53 55 
3 54 55 4 
3 4 55 56 
3 2 62 3 
3 42 41 66 
3 42 66 67 
3 42 67 45 
3 45 68 48 
3 45 67 69 
3 45 69 68 
3 41 70 66 
3 41 40 70 
3 36 71 72 
3 36 72 40 
3 36 34 71 
3 40 72 70 
3 31 73 74 
3 31 29 73 
3 31 74 33 
3 33 74 75 
3 33 76 34 
3 33 75 76 
3 34 76 71 
3 25 24 77 
3 25 77 27 
3 27 77 78 
3 27 78 29 
3 29 78 73 
3 19 14 79 
3 19 79 80 
3 19 80 21 
3 21 81 24 
3 21 80 81 
3 24 81 82 
3 24 82 77 
3 77 82 83 
3 77 83 78 
3 79 84 85 
3 79 86 84 
3 79 85 80 
3 79 14 86 
3 14 16 86 
3 12 87 16 
3 12 9 87 
3 16 88 86 
3 16 87 88 
3 86 88 89 
3 86 90 84 
3 86 89 90 
3 9 7 87 
3 87 91 88 
3 87 7 91 
3 6 3 92 
3 6 92 93 
3 6 94 7 
3 6 93 94 
3 94 93 95 
3 94 95 91 
3 94 91 7 
3 3 62 92 
3 64 56 55 
3 64 96 65 
3 64 55 96 
3 96 97 65 
3 96 98 97 
3 96 53 98 
3 96 55 53 
3 50 46 52 
3 52 99 98 
3 52 98 53 
3 52 46 99 
3 98 100 97 
3 98 99 100 
3 46 48 99 
3 68 69 101 
3 68 101 48 
3 48 101 99 
3 57 111 58 
3 57 110 111 
3 58 111 112 
3 58 112 59 
3 59 113 60 
3 59 114 113 
3 59 112 114 
3 60 113 115 
3 60 115 61 
3 61 115 116 
3 61 116 102 
3 63 92 62 
3 63 118 92 
3 63 117 118 
3 124 125 126 
3 124 127 125 
3 124 66 70 
3 124 70 128 
3 124 67 66 
3 124 128 127 
3 124 126 67 
3 126 69 67 
3 126 129 69 
3 126 125 130 
3 126 130 129 
3 70 72 128 
3 128 72 131 
3 128 131 132 
3 128 132 127 
3 71 131 72 
3 71 76 133 
3 71 134 131 
3 71 133 134 
3 131 134 132 
3 74 73 135 
3 74 135 136 
3 74 136 75 
3 75 136 137 
3 75 137 76 
3 76 137 133 
3 78 138 73 
3 78 83 138 
3 73 138 135 
3 80 85 139 
3 80 139 81 
3 139 140 141 
3 139 85 142 
3 139 142 140 
3 139 143 81 
3 139 141 143 
3 143 82 81 
3 143 83 82 
3 143 144 83 
3 143 141 144 
3 83 145 138 
3 83 144 145 
3 85 84 142 
3 142 146 140 
3 142 84 146 
3 84 90 146 
3 146 147 140 
3 146 148 147 
3 146 90 149 
3 146 149 148 
3 88 150 89 
3 88 91 150 
3 89 151 152 
3 89 152 90 
3 89 150 151 
3 91 95 153 
3 91 153 150 
3 93 154 95 
3 93 155 154 
3 93 92 155 
3 155 118 156 
3 155 156 154 
3 155 92 118 
3 154 153 95 
3 154 156 157 
3 154 157 158 
3 154 158 153 
3 118 159 156 
3 118 117 159 
3 65 97 123 
3 123 160 122 
3 123 97 160 
3 122 160 161 
3 97 100 160 
3 160 100 162 
3 160 163 161 
3 160 162 163 
3 100 99 164 
3 100 164 162 
3 162 165 163 
3 162 166 167 
3 162 167 165 
3 162 164 166 
3 99 101 164 
3 101 69 168 
3 101 169 164 
3 101 170 169 
3 101 168 170 
3 129 171 168 
3 129 172 171 
3 129 168 69 
3 129 130 172 
3 105 103 176 
3 105 176 106 
3 102 177 104 
3 102 116 177 
3 104 177 178 
3 104 178 103 
3 103 178 176 
3 107 183 108 
3 107 182 183 
3 108 184 109 
3 108 183 184 
3 109 184 185 
3 109 186 110 
3 109 185 186 
3 110 186 111 
3 115 113 187 
3 115 187 116 
3 111 186 188 
3 111 188 112 
3 112 188 189 
3 112 189 114 
3 114 190 113 
3 114 189 190 
3 113 190 187 
3 119 121 191 
3 119 191 120 
3 120 191 159 
3 120 159 117 
3 127 196 125 
3 127 132 196 
3 196 197 198 
3 196 198 125 
3 196 199 197 
3 196 200 199 
3 196 132 200 
3 198 201 130 
3 198 130 125 
3 198 202 201 
3 198 197 202 
3 132 134 200 
3 200 203 199 
3 200 134 203 
3 133 137 204 
3 133 204 203 
3 133 203 134 
3 203 204 199 
3 135 205 136 
3 135 138 205 
3 136 205 206 
3 136 206 204 
3 136 204 137 
3 138 207 205 
3 138 145 207 
3 145 208 207 
3 145 209 208 
3 145 144 209 
3 141 210 144 
3 141 140 211 
3 141 211 210 
3 210 209 144 
3 210 212 209 
3 210 211 213 
3 210 213 212 
3 209 212 208 
3 140 147 211 
3 211 214 213 
3 211 147 214 
3 147 148 214 
3 214 215 213 
3 214 216 215 
3 214 148 216 
3 149 217 148 
3 149 90 152 
3 149 152 218 
3 149 218 217 
3 150 153 219 
3 150 219 151 
3 151 220 152 
3 151 219 220 
3 153 158 221 
3 153 221 219 
3 156 222 157 
3 156 159 223 
3 156 223 222 
3 223 191 224 
3 223 224 222 
3 223 159 191 
3 222 225 157 
3 222 224 226 
3 222 226 225 
3 157 225 158 
3 191 121 227 
3 191 227 224 
3 161 163 228 
3 161 228 194 
3 194 228 229 
3 194 229 195 
3 195 229 230 
3 229 231 232 
3 229 232 230 
3 229 228 233 
3 229 233 231 
3 163 165 228 
3 228 165 233 
3 165 167 234 
3 165 234 233 
3 233 234 231 
3 164 169 166 
3 166 169 167 
3 169 235 236 
3 169 170 235 
3 169 236 167 
3 171 172 237 
3 171 238 168 
3 171 237 238 
3 168 238 170 
3 201 172 130 
3 201 239 240 
3 201 240 241 
3 201 202 239 
3 201 241 172 
3 106 176 246 
3 106 246 173 
3 173 247 174 
3 173 246 247 
3 174 248 175 
3 174 247 248 
3 175 248 242 
3 116 187 249 
3 116 249 177 
3 177 250 178 
3 177 249 250 
3 178 251 176 
3 178 250 251 
3 176 251 246 
3 179 255 256 
3 179 256 180 
3 180 257 181 
3 180 256 257 
3 181 258 182 
3 181 257 258 
3 182 258 183 
3 183 259 184 
3 183 258 259 
3 184 259 260 
3 184 260 185 
3 185 260 261 
3 185 261 186 
3 186 261 188 
3 188 261 262 
3 188 262 189 
3 189 262 263 
3 189 263 190 
3 190 264 265 
3 190 265 187 
3 190 263 264 
3 187 265 249 
3 192 266 193 
3 192 267 266 
3 193 227 121 
3 193 266 268 
3 193 268 227 
3 197 271 272 
3 197 199 271 
3 197 272 202 
3 272 271 273 
3 272 273 274 
3 272 275 276 
3 272 276 202 
3 272 274 275 
3 276 277 278 
3 276 278 239 
3 276 275 277 
3 276 239 202 
3 199 204 271 
3 271 204 279 
3 271 279 273 
3 204 206 279 
3 205 279 206 
3 205 280 279 
3 205 207 208 
3 205 208 280 
3 212 213 281 
3 212 280 208 
3 212 281 280 
3 281 282 274 
3 281 213 282 
3 281 273 280 
3 281 274 273 
3 280 273 279 
3 213 215 282 
3 282 215 283 
3 282 283 275 
3 282 275 274 
3 215 284 283 
3 215 216 284 
3 283 285 277 
3 283 277 275 
3 283 284 285 
3 148 217 286 
3 148 286 216 
3 216 287 284 
3 216 288 287 
3 216 286 288 
3 152 289 218 
3 152 220 289 
3 218 290 291 
3 218 291 217 
3 218 289 290 
3 219 221 220 
3 220 292 289 
3 220 221 292 
3 225 293 294 
3 225 295 158 
3 225 226 293 
3 225 294 295 
3 158 295 221 
3 224 227 296 
3 224 296 226 
3 296 227 268 
3 296 297 226 
3 296 298 297 
3 296 268 298 
3 298 299 297 
3 298 268 266 
3 298 266 299 
3 297 300 226 
3 297 301 300 
3 297 299 301 
3 226 300 293 
3 266 267 302 
3 266 302 299 
3 252 303 253 
3 252 270 303 
3 230 232 269 
3 269 232 304 
3 269 304 270 
3 270 304 303 
3 232 305 304 
3 232 231 305 
3 304 305 306 
3 304 306 303 
3 303 307 253 
3 303 306 307 
3 231 308 305 
3 231 234 308 
3 305 309 306 
3 305 308 309 
3 306 309 310 
3 306 310 307 
3 167 236 311 
3 167 311 234 
3 234 311 312 
3 234 312 308 
3 311 236 313 
3 311 313 312 
3 236 235 313 
3 238 314 235 
3 238 315 314 
3 238 237 315 
3 238 235 170 
3 241 316 172 
3 241 317 316 
3 241 240 317 
3 172 316 237 
3 278 318 319 
3 278 319 239 
3 278 277 320 
3 278 320 318 
3 239 319 240 
3 242 248 321 
3 242 321 243 
3 243 321 322 
3 243 322 244 
3 244 322 323 
3 244 323 245 
3 246 251 324 
3 246 324 247 
3 247 325 248 
3 247 324 325 
3 248 325 326 
3 248 326 321 
3 249 265 327 
3 249 327 250 
3 250 327 328 
3 250 328 251 
3 251 328 329 
3 251 330 324 
3 251 329 330 
3 253 307 254 
3 254 307 331 
3 254 331 255 
3 255 331 256 
3 256 332 257 
3 256 331 332 
3 257 333 258 
3 257 332 334 
3 257 334 333 
3 258 333 259 
3 259 335 260 
3 259 336 335 
3 259 333 336 
3 260 337 261 
3 260 335 337 
3 261 337 262 
3 262 338 263 
3 262 337 338 
3 338 339 340 
3 338 337 339 
3 338 341 263 
3 338 340 341 
3 341 342 343 
3 341 343 264 
3 341 264 263 
3 341 340 342 
3 343 342 344 
3 343 345 346 
3 343 346 264 
3 343 344 345 
3 346 345 347 
3 346 327 265 
3 346 348 327 
3 346 347 348 
3 346 265 264 
3 245 323 349 
3 245 349 302 
3 245 302 267 
3 284 350 285 
3 284 287 350 
3 285 350 351 
3 285 351 352 
3 285 352 277 
3 217 291 286 
3 286 353 288 
3 286 291 353 
3 288 354 287 
3 288 355 354 
3 288 353 355 
3 289 356 290 
3 289 357 356 
3 289 292 357 
3 290 356 291 
3 292 294 358 
3 292 221 295 
3 292 358 357 
3 292 295 294 
3 300 359 293 
3 300 360 359 
3 300 301 360 
3 293 359 294 
3 299 361 301 
3 299 302 361 
3 361 362 301 
3 361 363 362 
3 361 349 363 
3 361 302 349 
3 363 364 362 
3 363 322 364 
3 363 323 322 
3 363 349 323 
3 362 364 365 
3 362 366 367 
3 362 365 366 
3 362 367 301 
3 301 367 360 
3 307 310 368 
3 307 368 331 
3 331 368 332 
3 332 369 334 
3 332 368 369 
3 310 370 371 
3 310 371 368 
3 310 309 370 
3 368 371 369 
3 309 308 372 
3 309 372 373 
3 309 373 370 
3 308 312 372 
3 314 374 313 
3 314 375 374 
3 314 315 375 
3 314 313 235 
3 313 374 312 
3 312 374 376 
3 312 376 372 
3 372 376 373 
3 317 377 316 
3 317 378 379 
3 317 379 377 
3 317 240 378 
3 316 377 237 
3 237 377 315 
3 318 320 380 
3 318 381 382 
3 318 382 319 
3 318 380 381 
3 319 378 240 
3 319 382 378 
3 277 352 320 
3 321 364 322 
3 321 383 364 
3 321 326 383 
3 326 325 384 
3 326 384 383 
3 324 330 385 
3 324 385 325 
3 325 385 384 
3 329 328 386 
3 329 386 330 
3 348 347 387 
3 348 328 327 
3 348 387 328 
3 328 387 386 
3 334 369 388 
3 334 388 389 
3 334 389 333 
3 333 389 336 
3 336 390 335 
3 336 389 390 
3 335 390 391 
3 335 391 392 
3 335 339 337 
3 335 392 339 
3 339 392 340 
3 393 394 395 
3 393 395 345 
3 393 396 394 
3 393 344 396 
3 393 345 344 
3 345 395 347 
3 340 392 397 
3 340 397 342 
3 397 398 399 
3 397 392 400 
3 397 400 401 
3 397 399 342 
3 397 401 398 
3 399 396 344 
3 399 402 396 
3 399 344 342 
3 399 398 402 
3 396 402 394 
3 351 403 404 
3 351 350 405 
3 351 405 403 
3 351 404 352 
3 287 354 405 
3 287 405 350 
3 355 406 407 
3 355 353 406 
3 355 407 354 
3 291 408 353 
3 291 356 408 
3 353 408 406 
3 356 409 408 
3 356 357 409 
3 357 358 410 
3 357 410 409 
3 359 358 294 
3 359 360 411 
3 359 411 358 
3 358 411 410 
3 367 411 360 
3 367 366 412 
3 367 412 413 
3 367 413 411 
3 384 414 415 
3 384 415 365 
3 384 385 414 
3 384 365 383 
3 365 364 383 
3 365 415 366 
3 369 416 417 
3 369 417 388 
3 369 371 416 
3 370 373 371 
3 371 373 416 
3 375 376 374 
3 375 315 418 
3 375 419 376 
3 375 418 419 
3 376 419 373 
3 379 420 421 
3 379 422 420 
3 379 378 422 
3 379 421 377 
3 377 418 315 
3 377 421 418 
3 373 423 416 
3 373 419 423 
3 423 419 424 
3 423 425 416 
3 423 424 425 
3 416 425 417 
3 381 426 427 
3 381 380 428 
3 381 428 426 
3 381 427 382 
3 382 427 422 
3 382 422 378 
3 352 404 320 
3 320 404 380 
3 330 429 385 
3 330 386 429 
3 385 429 414 
3 395 430 347 
3 395 431 430 
3 395 394 431 
3 430 387 347 
3 430 431 432 
3 430 432 433 
3 430 433 387 
3 433 386 387 
3 433 432 434 
3 433 434 435 
3 433 435 436 
3 433 429 386 
3 433 436 429 
3 388 417 437 
3 388 437 389 
3 389 437 390 
3 390 438 391 
3 390 437 438 
3 438 439 440 
3 438 440 391 
3 438 437 441 
3 438 441 442 
3 438 442 439 
3 440 443 400 
3 440 400 391 
3 440 439 443 
3 400 443 401 
3 400 392 391 
3 401 444 445 
3 401 445 398 
3 401 443 444 
3 444 446 447 
3 444 443 446 
3 444 447 445 
3 445 448 398 
3 445 449 448 
3 445 447 449 
3 448 402 398 
3 448 450 402 
3 448 449 451 
3 448 451 450 
3 450 452 431 
3 450 431 394 
3 450 453 452 
3 450 454 453 
3 450 394 402 
3 450 451 454 
3 354 407 455 
3 354 455 405 
3 405 455 456 
3 405 456 403 
3 403 457 404 
3 403 456 457 
3 408 409 458 
3 408 458 406 
3 406 458 459 
3 406 459 407 
3 407 459 455 
3 410 411 460 
3 410 460 461 
3 410 461 409 
3 409 462 458 
3 409 461 462 
3 411 413 460 
3 415 414 463 
3 415 463 412 
3 415 412 366 
3 463 414 436 
3 463 464 412 
3 463 436 464 
3 412 464 413 
3 419 465 424 
3 419 418 465 
3 420 466 421 
3 420 422 467 
3 420 467 466 
3 421 466 465 
3 421 465 418 
3 426 468 469 
3 426 469 427 
3 426 470 468 
3 426 428 470 
3 427 469 467 
3 427 467 422 
3 425 441 417 
3 425 424 441 
3 441 424 442 
3 441 437 417 
3 404 457 471 
3 404 471 380 
3 380 471 428 
3 436 414 429 
3 436 435 464 
3 452 472 432 
3 452 432 431 
3 452 453 473 
3 452 473 472 
3 472 473 474 
3 472 474 475 
3 472 475 434 
3 472 434 432 
3 475 476 434 
3 475 474 462 
3 475 462 476 
3 434 476 435 
3 442 466 439 
3 442 424 466 
3 466 477 439 
3 466 467 477 
3 466 424 465 
3 477 467 478 
3 477 478 446 
3 477 446 439 
3 446 478 447 
3 446 443 439 
3 447 468 449 
3 447 478 469 
3 447 469 468 
3 468 470 449 
3 470 451 449 
3 470 479 451 
3 470 428 479 
3 479 471 480 
3 479 454 451 
3 479 480 454 
3 479 428 471 
3 480 471 457 
3 480 457 481 
3 480 481 454 
3 454 481 453 
3 455 459 482 
3 455 482 456 
3 456 482 481 
3 456 481 457 
3 458 474 459 
3 458 462 474 
3 459 474 473 
3 459 473 482 
3 460 413 461 
3 461 435 476 
3 461 476 462 
3 461 413 464 
3 461 464 435 
3 469 478 467 
3 481 482 453 
3 482 473 453 
